name Run_20002_GRF.mot
datacolumns 19
datarows 12
range 0.39 0.401
endheader
time	     ground_force_vx	     ground_force_vy	     ground_force_vz	     ground_force_px	     ground_force_py	     ground_force_pz	   l_ground_force_vx	   l_ground_force_vy	   l_ground_force_vz	   l_ground_force_px	   l_ground_force_py	   l_ground_force_pz	     ground_torque_x	     ground_torque_y	     ground_torque_z	   l_ground_torque_x	   l_ground_torque_y	   l_ground_torque_z	
0.39	         26.14504200	       1251.29492200	        -20.76643200	          0.97762400	          0.00000000	         -0.31012200	          0.00000000	          0.00000000	          0.00000000	          0.00000000	          0.00000000	          0.00000000	          0.00000000	         -0.80587400	          0.00000000	          0.00000000	          0.00000000	          0.00000000	
0.391	         28.33442100	       1241.10693400	        -19.76688800	          0.97617700	          0.00000000	         -0.31027100	          0.00000000	          0.00000000	          0.00000000	          0.00000000	          0.00000000	          0.00000000	          0.00000000	         -0.88364000	          0.00000000	          0.00000000	          0.00000000	          0.00000000	
0.392	         30.49666600	       1230.79040500	        -18.76438300	          0.97472800	          0.00000000	         -0.31042100	          0.00000000	          0.00000000	          0.00000000	          0.00000000	          0.00000000	          0.00000000	          0.00000000	         -0.96159300	          0.00000000	          0.00000000	          0.00000000	          0.00000000	
0.393	         32.62865400	       1220.34704600	        -17.76027900	          0.97327600	          0.00000000	         -0.31057300	          0.00000000	          0.00000000	          0.00000000	          0.00000000	          0.00000000	          0.00000000	          0.00000000	         -1.03951200	          0.00000000	          0.00000000	          0.00000000	          0.00000000	
0.394	         34.72752000	       1209.77905300	        -16.75590700	          0.97182400	          0.00000000	         -0.31072700	          0.00000000	          0.00000000	          0.00000000	          0.00000000	          0.00000000	          0.00000000	          0.00000000	         -1.11717700	          0.00000000	          0.00000000	          0.00000000	          0.00000000	
0.395	         36.79065700	       1199.08886700	        -15.75258000	          0.97037100	          0.00000000	         -0.31088200	          0.00000000	          0.00000000	          0.00000000	          0.00000000	          0.00000000	          0.00000000	          0.00000000	         -1.19436900	          0.00000000	          0.00000000	          0.00000000	          0.00000000	
0.396	         38.81571600	       1188.27893100	        -14.75158100	          0.96891900	          0.00000000	         -0.31103800	          0.00000000	          0.00000000	          0.00000000	          0.00000000	          0.00000000	          0.00000000	          0.00000000	         -1.27087200	          0.00000000	          0.00000000	          0.00000000	          0.00000000	
0.397	         40.80060600	       1177.35241700	        -13.75417000	          0.96746700	          0.00000000	         -0.31119600	          0.00000000	          0.00000000	          0.00000000	          0.00000000	          0.00000000	          0.00000000	          0.00000000	         -1.34647200	          0.00000000	          0.00000000	          0.00000000	          0.00000000	
0.398	         42.74350000	       1166.31250000	        -12.76158200	          0.96601800	          0.00000000	         -0.31135600	          0.00000000	          0.00000000	          0.00000000	          0.00000000	          0.00000000	          0.00000000	          0.00000000	         -1.42095800	          0.00000000	          0.00000000	          0.00000000	          0.00000000	
0.399	         44.64282600	       1155.16259800	        -11.77502800	          0.96457000	          0.00000000	         -0.31151600	          0.00000000	          0.00000000	          0.00000000	          0.00000000	          0.00000000	          0.00000000	          0.00000000	         -1.49412400	          0.00000000	          0.00000000	          0.00000000	          0.00000000	
0.4	         46.49729200	       1143.90673800	        -10.79569900	          0.96312500	          0.00000000	         -0.31167800	          0.00000000	          0.00000000	          0.00000000	          0.00000000	          0.00000000	          0.00000000	          0.00000000	         -1.56576900	          0.00000000	          0.00000000	          0.00000000	          0.00000000	
0.401	         48.30588900	       1132.54882800	         -9.82476700	          0.96168200	          0.00000000	         -0.31184100	          0.00000000	          0.00000000	          0.00000000	          0.00000000	          0.00000000	          0.00000000	          0.00000000	         -1.63569600	          0.00000000	          0.00000000	          0.00000000	          0.00000000	
